<svg aria-hidden="true" style="position: absolute; width: 0; height: 0; overflow: hidden;" version="1.1" xmlns="http://www.w3.org/2000/svg" xmlns:xlink="http://www.w3.org/1999/xlink">
<defs>
<symbol id="icon-logo" viewBox="0 0 108 32">
<path fill="#fff" style="fill: var(--color1, #fff)" d="M56.048 11.94c-0.093 0.153-0.19 0.267-0.29 0.34-0.093 0.067-0.217 0.1-0.37 0.1-0.147 0-0.307-0.050-0.48-0.15-0.167-0.107-0.364-0.22-0.59-0.34s-0.487-0.23-0.781-0.33c-0.294-0.107-0.637-0.16-1.031-0.16-0.694 0-1.214 0.157-1.561 0.47-0.347 0.307-0.52 0.71-0.52 1.21 0 0.32 0.093 0.587 0.28 0.8 0.194 0.207 0.444 0.387 0.751 0.54 0.314 0.153 0.667 0.29 1.061 0.41s0.797 0.253 1.211 0.4c0.414 0.14 0.817 0.307 1.211 0.5s0.744 0.437 1.051 0.73c0.314 0.293 0.564 0.653 0.751 1.080 0.193 0.42 0.29 0.933 0.29 1.54 0 0.66-0.117 1.28-0.35 1.86-0.227 0.573-0.557 1.077-0.991 1.51-0.434 0.427-0.971 0.763-1.611 1.010-0.634 0.247-1.355 0.37-2.162 0.37-0.46 0-0.921-0.047-1.381-0.14-0.454-0.093-0.894-0.223-1.321-0.39-0.42-0.167-0.817-0.367-1.191-0.6s-0.701-0.493-0.981-0.78l0.881-1.42c0.073-0.107 0.17-0.193 0.29-0.26 0.12-0.073 0.247-0.11 0.38-0.11 0.18 0 0.37 0.067 0.571 0.2s0.43 0.28 0.691 0.44c0.26 0.16 0.56 0.307 0.901 0.44 0.347 0.133 0.761 0.2 1.241 0.2 0.701 0 1.241-0.16 1.621-0.48 0.387-0.32 0.581-0.797 0.581-1.43 0-0.367-0.097-0.663-0.29-0.89-0.187-0.227-0.434-0.417-0.741-0.57s-0.657-0.283-1.051-0.39c-0.394-0.113-0.797-0.237-1.211-0.37s-0.817-0.293-1.211-0.48c-0.394-0.187-0.744-0.433-1.051-0.74s-0.557-0.687-0.751-1.14c-0.187-0.453-0.28-1.017-0.28-1.69 0-0.54 0.107-1.063 0.32-1.57s0.527-0.957 0.941-1.35c0.414-0.393 0.921-0.71 1.521-0.95 0.607-0.24 1.301-0.36 2.082-0.36 0.874 0 1.681 0.137 2.422 0.41 0.747 0.267 1.378 0.64 1.892 1.12l-0.741 1.41z"></path>
<path fill="#fff" style="fill: var(--color1, #fff)" d="M74.84 16.41c0 1.060-0.18 2.043-0.54 2.95-0.354 0.907-0.857 1.69-1.511 2.35-0.647 0.66-1.428 1.18-2.342 1.56-0.914 0.373-1.928 0.56-3.043 0.56s-2.129-0.187-3.043-0.56c-0.914-0.38-1.698-0.9-2.352-1.56s-1.161-1.443-1.521-2.35c-0.354-0.907-0.531-1.89-0.531-2.95s0.177-2.040 0.531-2.94c0.36-0.907 0.867-1.69 1.521-2.35s1.438-1.177 2.352-1.55c0.914-0.38 1.928-0.57 3.043-0.57s2.129 0.19 3.043 0.57c0.914 0.373 1.695 0.893 2.342 1.56 0.654 0.66 1.158 1.443 1.511 2.35 0.36 0.9 0.54 1.877 0.54 2.93zM71.767 16.41c0-0.76-0.1-1.44-0.3-2.040-0.2-0.607-0.49-1.12-0.871-1.54-0.374-0.427-0.831-0.75-1.371-0.97-0.534-0.227-1.141-0.34-1.822-0.34s-1.291 0.113-1.832 0.34c-0.54 0.22-1.001 0.543-1.381 0.97-0.374 0.42-0.66 0.933-0.861 1.54-0.2 0.6-0.3 1.28-0.3 2.040 0 0.767 0.1 1.453 0.3 2.060 0.2 0.6 0.487 1.11 0.861 1.53 0.38 0.42 0.841 0.743 1.381 0.97 0.54 0.22 1.151 0.33 1.832 0.33s1.288-0.11 1.822-0.33c0.54-0.227 0.998-0.55 1.371-0.97 0.38-0.42 0.671-0.93 0.871-1.53 0.2-0.607 0.3-1.293 0.3-2.060z"></path>
<path fill="#fff" style="fill: var(--color1, #fff)" d="M87.251 21.23v2.44h-8.617v-14.51h3.003v12.070h5.615z"></path>
<path fill="#fff" style="fill: var(--color1, #fff)" d="M93.716 23.67h-3.022v-14.51h3.022v14.51z"></path>
<path fill="#fff" style="fill: var(--color1, #fff)" d="M106.221 11.94c-0.093 0.153-0.19 0.267-0.29 0.34-0.093 0.067-0.217 0.1-0.37 0.1-0.147 0-0.307-0.050-0.481-0.15-0.167-0.107-0.363-0.22-0.59-0.34s-0.487-0.23-0.781-0.33c-0.294-0.107-0.637-0.16-1.031-0.16-0.694 0-1.214 0.157-1.561 0.47-0.347 0.307-0.521 0.71-0.521 1.21 0 0.32 0.094 0.587 0.281 0.8 0.193 0.207 0.443 0.387 0.75 0.54 0.314 0.153 0.668 0.29 1.061 0.41 0.394 0.12 0.798 0.253 1.211 0.4 0.414 0.14 0.818 0.307 1.211 0.5 0.394 0.193 0.744 0.437 1.051 0.73 0.314 0.293 0.564 0.653 0.751 1.080 0.193 0.42 0.29 0.933 0.29 1.54 0 0.66-0.117 1.28-0.35 1.86-0.227 0.573-0.557 1.077-0.991 1.51-0.434 0.427-0.971 0.763-1.611 1.010-0.634 0.247-1.355 0.37-2.162 0.37-0.461 0-0.921-0.047-1.382-0.14-0.453-0.093-0.894-0.223-1.321-0.39-0.42-0.167-0.817-0.367-1.191-0.6s-0.701-0.493-0.981-0.78l0.881-1.42c0.073-0.107 0.17-0.193 0.29-0.26 0.12-0.073 0.247-0.11 0.38-0.11 0.18 0 0.37 0.067 0.57 0.2s0.43 0.28 0.691 0.44c0.26 0.16 0.56 0.307 0.901 0.44 0.347 0.133 0.76 0.2 1.241 0.2 0.7 0 1.241-0.16 1.621-0.48 0.387-0.32 0.581-0.797 0.581-1.43 0-0.367-0.097-0.663-0.291-0.89-0.186-0.227-0.433-0.417-0.74-0.57s-0.657-0.283-1.051-0.39c-0.394-0.113-0.797-0.237-1.211-0.37s-0.818-0.293-1.211-0.48c-0.394-0.187-0.744-0.433-1.051-0.74s-0.557-0.687-0.751-1.14c-0.187-0.453-0.28-1.017-0.28-1.69 0-0.54 0.107-1.063 0.32-1.57s0.527-0.957 0.941-1.35c0.414-0.393 0.921-0.71 1.521-0.95 0.608-0.24 1.301-0.36 2.082-0.36 0.874 0 1.682 0.137 2.422 0.41 0.748 0.267 1.378 0.64 1.892 1.12l-0.741 1.41z"></path>
<path fill="#fff" style="fill: var(--color1, #fff)" d="M21.094 4.75l2.426 2.424 7.181-7.174h-4.915l-4.692 4.75zM32.027 8.112l-3.427-3.362 3.427-3.424v6.786zM6.079 19.749l6.179-6.173 2.426 2.424-6.179 6.173-2.426-2.424zM21.090 19.75l6.179-6.173 2.426 2.424-6.179 6.173-2.426-2.424zM16.010 17.326l-2.426 2.424 6.179 6.173 2.426-2.424-6.179-6.173zM12.261 21.076l6.18 6.174-2.426 2.487-6.18-6.237 2.426-2.424zM31.089 17.326l0.938 0.938v4.849l-3.427-3.362 2.489-2.424zM2.326 15.999l6.179-6.173 2.426 2.424-6.179 6.173-2.426-2.424zM23.516 9.827l-6.179 6.173 2.426 2.424 6.179-6.173-2.426-2.424zM27.273 6.076l4.754 4.688v4.849l-7.181-7.112 2.426-2.424zM13.587 4.75l6.18 6.174 2.426-2.424-6.18-6.237-2.426 2.487zM12.258 6.077l-2.426 2.424 6.179 6.173 2.426-2.424-6.179-6.173zM25.947 27.25l-2.426-2.424-7.118 7.174h4.853l4.692-4.75zM12.261 28.576l2.426 2.487-0.938 0.938h-4.853l3.365-3.424zM10.934 27.25l-2.426-2.424-7.18 7.174h4.915l4.692-4.75zM24.847 23.5l2.426-2.424 4.754 4.688v4.911l-7.181-7.174zM0 23.888v6.786l3.427-3.424-3.427-3.362zM23.909 32l3.365-3.424 3.427 3.424h-6.792zM17.34 0.938l2.426 2.487 3.365-3.424h-4.853l-0.938 0.938zM8.119 0l-3.365 3.424-3.427-3.424h6.792zM4.754 25.924l2.426-2.424-7.18-7.112v4.849l4.754 4.688zM8.507 7.174l-2.426-2.424 4.692-4.75h4.853l-7.118 7.174zM4.754 10.924l2.426-2.424-7.18-7.174v4.911l4.754 4.687zM3.427 12.25l-2.489 2.424-0.938-0.938v-4.849l3.427 3.362z"></path>
</symbol>
<symbol id="icon-logo-dark" viewBox="0 0 108 32">
<path d="M56.048 11.94c-0.093 0.153-0.19 0.267-0.29 0.34-0.093 0.067-0.217 0.1-0.37 0.1-0.147 0-0.307-0.050-0.48-0.15-0.167-0.107-0.364-0.22-0.59-0.34s-0.487-0.23-0.781-0.33c-0.294-0.107-0.637-0.16-1.031-0.16-0.694 0-1.214 0.157-1.561 0.47-0.347 0.307-0.52 0.71-0.52 1.21 0 0.32 0.093 0.587 0.28 0.8 0.194 0.207 0.444 0.387 0.751 0.54 0.314 0.153 0.667 0.29 1.061 0.41s0.797 0.253 1.211 0.4c0.414 0.14 0.817 0.307 1.211 0.5s0.744 0.437 1.051 0.73c0.314 0.293 0.564 0.653 0.751 1.080 0.193 0.42 0.29 0.933 0.29 1.54 0 0.66-0.117 1.28-0.35 1.86-0.227 0.573-0.557 1.077-0.991 1.51-0.434 0.427-0.971 0.763-1.611 1.010-0.634 0.247-1.355 0.37-2.162 0.37-0.46 0-0.921-0.047-1.381-0.14-0.454-0.093-0.894-0.223-1.321-0.39-0.42-0.167-0.817-0.367-1.191-0.6s-0.701-0.493-0.981-0.78l0.881-1.42c0.073-0.107 0.17-0.193 0.29-0.26 0.12-0.073 0.247-0.11 0.38-0.11 0.18 0 0.37 0.067 0.571 0.2s0.43 0.28 0.691 0.44c0.26 0.16 0.56 0.307 0.901 0.44 0.347 0.133 0.761 0.2 1.241 0.2 0.701 0 1.241-0.16 1.621-0.48 0.387-0.32 0.581-0.797 0.581-1.43 0-0.367-0.097-0.663-0.29-0.89-0.187-0.227-0.434-0.417-0.741-0.57s-0.657-0.283-1.051-0.39c-0.394-0.113-0.797-0.237-1.211-0.37s-0.817-0.293-1.211-0.48c-0.394-0.187-0.744-0.433-1.051-0.74s-0.557-0.687-0.751-1.14c-0.187-0.453-0.28-1.017-0.28-1.69 0-0.54 0.107-1.063 0.32-1.57s0.527-0.957 0.941-1.35c0.414-0.393 0.921-0.71 1.521-0.95 0.607-0.24 1.301-0.36 2.082-0.36 0.874 0 1.681 0.137 2.422 0.41 0.747 0.267 1.378 0.64 1.892 1.12l-0.741 1.41z"></path>
<path d="M74.84 16.41c0 1.060-0.18 2.043-0.54 2.95-0.354 0.907-0.857 1.69-1.511 2.35-0.647 0.66-1.428 1.18-2.342 1.56-0.914 0.373-1.928 0.56-3.043 0.56s-2.129-0.187-3.043-0.56c-0.914-0.38-1.698-0.9-2.352-1.56s-1.161-1.443-1.521-2.35c-0.354-0.907-0.531-1.89-0.531-2.95s0.177-2.040 0.531-2.94c0.36-0.907 0.867-1.69 1.521-2.35s1.438-1.177 2.352-1.55c0.914-0.38 1.928-0.57 3.043-0.57s2.129 0.19 3.043 0.57c0.914 0.373 1.695 0.893 2.342 1.56 0.654 0.66 1.158 1.443 1.511 2.35 0.36 0.9 0.54 1.877 0.54 2.93zM71.767 16.41c0-0.76-0.1-1.44-0.3-2.040-0.2-0.607-0.49-1.12-0.871-1.54-0.374-0.427-0.831-0.75-1.371-0.97-0.534-0.227-1.141-0.34-1.822-0.34s-1.291 0.113-1.832 0.34c-0.54 0.22-1.001 0.543-1.381 0.97-0.374 0.42-0.66 0.933-0.861 1.54-0.2 0.6-0.3 1.28-0.3 2.040 0 0.767 0.1 1.453 0.3 2.060 0.2 0.6 0.487 1.11 0.861 1.53 0.38 0.42 0.841 0.743 1.381 0.97 0.54 0.22 1.151 0.33 1.832 0.33s1.288-0.11 1.822-0.33c0.54-0.227 0.998-0.55 1.371-0.97 0.38-0.42 0.671-0.93 0.871-1.53 0.2-0.607 0.3-1.293 0.3-2.060z"></path>
<path d="M87.251 21.23v2.44h-8.617v-14.51h3.003v12.070h5.615z"></path>
<path d="M93.716 23.67h-3.022v-14.51h3.022v14.51z"></path>
<path d="M106.221 11.94c-0.093 0.153-0.19 0.267-0.29 0.34-0.093 0.067-0.217 0.1-0.37 0.1-0.147 0-0.307-0.050-0.481-0.15-0.167-0.107-0.363-0.22-0.59-0.34s-0.487-0.23-0.781-0.33c-0.294-0.107-0.637-0.16-1.031-0.16-0.694 0-1.214 0.157-1.561 0.47-0.347 0.307-0.521 0.71-0.521 1.21 0 0.32 0.094 0.587 0.281 0.8 0.193 0.207 0.443 0.387 0.75 0.54 0.314 0.153 0.668 0.29 1.061 0.41 0.394 0.12 0.798 0.253 1.211 0.4 0.414 0.14 0.818 0.307 1.211 0.5 0.394 0.193 0.744 0.437 1.051 0.73 0.314 0.293 0.564 0.653 0.751 1.080 0.193 0.42 0.29 0.933 0.29 1.54 0 0.66-0.117 1.28-0.35 1.86-0.227 0.573-0.557 1.077-0.991 1.51-0.434 0.427-0.971 0.763-1.611 1.010-0.634 0.247-1.355 0.37-2.162 0.37-0.461 0-0.921-0.047-1.382-0.14-0.453-0.093-0.894-0.223-1.321-0.39-0.42-0.167-0.817-0.367-1.191-0.6s-0.701-0.493-0.981-0.78l0.881-1.42c0.073-0.107 0.17-0.193 0.29-0.26 0.12-0.073 0.247-0.11 0.38-0.11 0.18 0 0.37 0.067 0.57 0.2s0.43 0.28 0.691 0.44c0.26 0.16 0.56 0.307 0.901 0.44 0.347 0.133 0.76 0.2 1.241 0.2 0.7 0 1.241-0.16 1.621-0.48 0.387-0.32 0.581-0.797 0.581-1.43 0-0.367-0.097-0.663-0.291-0.89-0.186-0.227-0.433-0.417-0.74-0.57s-0.657-0.283-1.051-0.39c-0.394-0.113-0.797-0.237-1.211-0.37s-0.818-0.293-1.211-0.48c-0.394-0.187-0.744-0.433-1.051-0.74s-0.557-0.687-0.751-1.14c-0.187-0.453-0.28-1.017-0.28-1.69 0-0.54 0.107-1.063 0.32-1.57s0.527-0.957 0.941-1.35c0.414-0.393 0.921-0.71 1.521-0.95 0.608-0.24 1.301-0.36 2.082-0.36 0.874 0 1.682 0.137 2.422 0.41 0.748 0.267 1.378 0.64 1.892 1.12l-0.741 1.41z"></path>
<path d="M21.094 4.75l2.426 2.424 7.181-7.174h-4.915l-4.692 4.75zM32.027 8.112l-3.427-3.362 3.427-3.424v6.786zM6.079 19.749l6.179-6.173 2.426 2.424-6.179 6.173-2.426-2.424zM21.090 19.75l6.179-6.173 2.426 2.424-6.179 6.173-2.426-2.424zM16.010 17.326l-2.426 2.424 6.179 6.173 2.426-2.424-6.179-6.173zM12.261 21.076l6.18 6.174-2.426 2.487-6.18-6.237 2.426-2.424zM31.089 17.326l0.938 0.938v4.849l-3.427-3.362 2.489-2.424zM2.326 15.999l6.179-6.173 2.426 2.424-6.179 6.173-2.426-2.424zM23.516 9.827l-6.179 6.173 2.426 2.424 6.179-6.173-2.426-2.424zM27.273 6.076l4.754 4.688v4.849l-7.181-7.112 2.426-2.424zM13.587 4.75l6.18 6.174 2.426-2.424-6.18-6.237-2.426 2.487zM12.258 6.077l-2.426 2.424 6.179 6.173 2.426-2.424-6.179-6.173zM25.947 27.25l-2.426-2.424-7.118 7.174h4.853l4.692-4.75zM12.261 28.576l2.426 2.487-0.938 0.938h-4.853l3.365-3.424zM10.934 27.25l-2.426-2.424-7.18 7.174h4.915l4.692-4.75zM24.847 23.5l2.426-2.424 4.754 4.688v4.911l-7.181-7.174zM0 23.888v6.786l3.427-3.424-3.427-3.362zM23.909 32l3.365-3.424 3.427 3.424h-6.792zM17.34 0.938l2.426 2.487 3.365-3.424h-4.853l-0.938 0.938zM8.119 0l-3.365 3.424-3.427-3.424h6.792zM4.754 25.924l2.426-2.424-7.18-7.112v4.849l4.754 4.688zM8.507 7.174l-2.426-2.424 4.692-4.75h4.853l-7.118 7.174zM4.754 10.924l2.426-2.424-7.18-7.174v4.911l4.754 4.687zM3.427 12.25l-2.489 2.424-0.938-0.938v-4.849l3.427 3.362z"></path>
</symbol>
<symbol id="icon-quote-icon" viewBox="0 0 39 32">
<path stroke-linejoin="miter" stroke-linecap="butt" stroke-miterlimit="4" stroke-width="0.381" d="M26.165 17.217c-0.185-0.652-0.279-1.402-0.279-2.251 0-2.315 0.88-4.601 2.661-6.86 1.866-2.263 4.053-3.916 6.561-4.964l0.188-0.079-1.28-2.551-0.167 0.077c-4.286 1.971-7.512 4.605-9.665 7.906l-0-0-0.002 0.003c-2.068 3.297-3.101 7.006-3.101 11.122 0 3.212 0.703 5.943 2.119 8.183 1.675 2.67 4.154 4.007 7.411 4.007 2.259 0 4.152-0.752 5.664-2.26 1.593-1.587 2.391-3.513 2.391-5.768 0-2.412-0.794-4.343-2.395-5.771-1.512-1.505-3.404-2.256-5.661-2.256-1.668 0-3.152 0.488-4.446 1.462zM5.274 17.217c-0.185-0.652-0.279-1.402-0.279-2.251 0-2.315 0.88-4.601 2.661-6.86 1.866-2.263 4.053-3.916 6.561-4.964l0.188-0.079-1.28-2.551-0.167 0.077c-4.286 1.971-7.512 4.605-9.665 7.906l-0-0-0.002 0.003c-2.068 3.297-3.101 7.006-3.101 11.122 0 3.212 0.703 5.943 2.119 8.183 1.675 2.67 4.154 4.007 7.411 4.007 2.259 0 4.152-0.752 5.664-2.26 1.593-1.587 2.391-3.513 2.391-5.768 0-2.412-0.794-4.343-2.395-5.771-1.512-1.505-3.404-2.256-5.661-2.256-1.668 0-3.152 0.488-4.446 1.462z"></path>
</symbol>
<symbol id="icon-quote-icon-dark" viewBox="0 0 39 32">
<path stroke-linejoin="miter" stroke-linecap="butt" stroke-miterlimit="4" stroke-width="0.381" d="M26.165 17.217c-0.185-0.652-0.279-1.402-0.279-2.251 0-2.315 0.88-4.601 2.661-6.86 1.866-2.263 4.053-3.916 6.561-4.964l0.188-0.079-1.28-2.551-0.167 0.077c-4.286 1.971-7.512 4.605-9.665 7.906l-0-0-0.002 0.003c-2.068 3.297-3.101 7.006-3.101 11.122 0 3.212 0.703 5.943 2.119 8.183 1.675 2.67 4.154 4.007 7.411 4.007 2.259 0 4.152-0.752 5.664-2.26 1.593-1.587 2.391-3.513 2.391-5.768 0-2.412-0.794-4.343-2.395-5.771-1.512-1.505-3.404-2.256-5.661-2.256-1.668 0-3.152 0.488-4.446 1.462zM5.274 17.217c-0.185-0.652-0.279-1.402-0.279-2.251 0-2.315 0.88-4.601 2.661-6.86 1.866-2.263 4.053-3.916 6.561-4.964l0.188-0.079-1.28-2.551-0.167 0.077c-4.286 1.971-7.512 4.605-9.665 7.906l-0-0-0.002 0.003c-2.068 3.297-3.101 7.006-3.101 11.122 0 3.212 0.703 5.943 2.119 8.183 1.675 2.67 4.154 4.007 7.411 4.007 2.259 0 4.152-0.752 5.664-2.26 1.593-1.587 2.391-3.513 2.391-5.768 0-2.412-0.794-4.343-2.395-5.771-1.512-1.505-3.404-2.256-5.661-2.256-1.668 0-3.152 0.488-4.446 1.462z"></path>
</symbol>
<symbol id="icon-tablet" viewBox="0 0 52 32">
<path stroke-linejoin="miter" stroke-linecap="butt" stroke-miterlimit="4" stroke-width="0.381" d="M26.165 17.217c-0.185-0.652-0.279-1.402-0.279-2.251 0-2.315 0.88-4.601 2.661-6.86 1.866-2.263 4.053-3.916 6.561-4.964l0.188-0.079-1.28-2.551-0.167 0.077c-4.286 1.971-7.512 4.605-9.665 7.906l-0-0-0.002 0.003c-2.068 3.297-3.101 7.006-3.101 11.122 0 3.212 0.703 5.943 2.119 8.183 1.675 2.67 4.154 4.007 7.411 4.007 2.259 0 4.152-0.752 5.664-2.26 1.593-1.587 2.391-3.513 2.391-5.768 0-2.412-0.794-4.343-2.395-5.771-1.512-1.505-3.404-2.256-5.661-2.256-1.668 0-3.152 0.488-4.446 1.462zM5.274 17.217c-0.185-0.652-0.279-1.402-0.279-2.251 0-2.315 0.88-4.601 2.661-6.86 1.866-2.263 4.053-3.916 6.561-4.964l0.188-0.079-1.28-2.551-0.167 0.077c-4.286 1.971-7.512 4.605-9.665 7.906l-0-0-0.002 0.003c-2.068 3.297-3.101 7.006-3.101 11.122 0 3.212 0.703 5.943 2.119 8.183 1.675 2.67 4.154 4.007 7.411 4.007 2.259 0 4.152-0.752 5.664-2.26 1.593-1.587 2.391-3.513 2.391-5.768 0-2.412-0.794-4.343-2.395-5.771-1.512-1.505-3.404-2.256-5.661-2.256-1.668 0-3.152 0.488-4.446 1.462z"></path>
</symbol>
</defs>
</svg>
